<svg xmlns="http://www.w3.org/2000/svg" width="42" height="56"><defs><linearGradient id="a" x1="10.37" y1="11.617" x2="32.69" y2="44.707" gradientUnits="userSpaceOnUse"><stop offset=".09" stop-color="#fd9700"/><stop offset=".28" stop-color="#f40"/><stop offset=".49" stop-color="#ff2469"/><stop offset=".78" stop-color="#c65cff"/><stop offset="1" stop-color="#0092ff"/></linearGradient></defs><path fill="none" d="M0 0H42V56H0z"/><path d="M40.541 29.292a7.359 7.359 0 0 0-1.033-1.7 13.194 13.194 0 0 0-1.537-1.577l-1.618-1.293.585-1.207c.124-.275.24-.538.345-.794.528-1.278.821-2.47.874-3.542.063-1.315-.358-2.549-1.25-3.67-.764-.956-1.733-1.596-2.879-1.898a7.063 7.063 0 0 0-1.974-.252c-.695.006-1.432.08-2.192.217l-2.02.46-.579-1.21a25.387 25.387 0 0 0-.405-.765c-.67-1.21-1.418-2.183-2.224-2.892-.989-.87-2.217-1.311-3.649-1.311-1.223 0-2.327.358-3.279 1.066a7.33 7.33 0 0 0-1.428 1.386c-.427.547-.83 1.169-1.196 1.848l-.9 1.866-1.308-.302c-.296-.06-.58-.113-.851-.16-1.36-.23-2.588-.252-3.647-.063-1.296.23-2.407.915-3.3 2.035-.764.957-1.171 2.043-1.212 3.228-.023.69.04 1.338.194 1.981.16.674.396 1.376.699 2.087l.898 1.871-1.05.833c-.23.194-.45.381-.655.566-1.03.922-1.811 1.867-2.324 2.81C1 30.067.842 31.362 1.16 32.76c.273 1.194.868 2.19 1.77 2.959.524.448 1.07.804 1.668 1.085a13.07 13.07 0 0 0 2.068.754c.193.053.4.106.643.169l1.371.305-.004.753.008.577c.006.301.017.59.033.866.078 1.38.33 2.58.749 3.569.513 1.213 1.428 2.142 2.72 2.765a5.461 5.461 0 0 0 2.387.562c.341 0 .684-.033 1.028-.1a7.302 7.302 0 0 0 1.888-.63c.62-.304 1.252-.69 1.88-1.146l1.621-1.29 1.05.842c.238.178.47.35.695.51 1.13.8 2.226 1.351 3.257 1.64.46.128.924.193 1.39.193.82 0 1.645-.2 2.467-.596 1.104-.531 1.942-1.333 2.492-2.383a7.35 7.35 0 0 0 .685-1.868c.148-.677.24-1.412.276-2.184l.039-1.384-.01-.696 1.283-.289c.291-.074.57-.148.835-.225 1.328-.384 2.442-.897 3.313-1.525 1.067-.77 1.77-1.87 2.09-3.266.272-1.193.168-2.348-.31-3.435zm-7.356-2.556c-.112.238-.286.608-.42.913l-.102.236c-.381.913-.685 1.86-.904 2.816a17.634 17.634 0 0 0-.41 2.914l-.016.324c-.016.355-.027.737-.034 1.14-.004.16-.005.683-.005 1.053l.01.318-.039.009c-.246.056-1.125.266-1.337.316l-.135.033c-.251.06-.675.16-1.011.249l-.252.069c-.953.271-1.883.625-2.765 1.049-.878.423-1.73.926-2.528 1.492l-.27.193c-.286.21-.592.439-.912.684-.13.098-.547.43-.837.661l-.236.2-1.275-1.005c-.208-.162-.515-.402-.77-.592l-.209-.153a17.414 17.414 0 0 0-5.295-2.556l-.311-.087a41.592 41.592 0 0 0-2.22-.547l-.22-.043v-.038c-.001-.252-.01-1.157-.012-1.374l-.002-.156c-.002-.26-.006-.684-.017-1.025l-.012-.259a17.367 17.367 0 0 0-1.302-5.736l-.126-.297c-.14-.325-.295-.674-.462-1.04a70.917 70.917 0 0 0-.414-.868l-.19-.365.036-.028c.197-.158.896-.726 1.062-.863l.082-.066c.197-.16.554-.45.836-.69l.191-.167a17.296 17.296 0 0 0 3.67-4.592l.157-.287c.167-.311.342-.65.523-1.009.072-.14.292-.595.453-.927l.137-.31.043.009c.245.054 1.125.248 1.34.294l.146.032c.254.055.672.146 1.005.21l.26.049a17.33 17.33 0 0 0 5.908 0l.288-.05c.35-.064.725-.138 1.12-.22.168-.034.733-.163 1.095-.245l.242-.063.016.034c.11.227.51 1.04.607 1.233l.073.147c.116.235.3.61.46.915l.12.222a17.44 17.44 0 0 0 1.638 2.463c.61.764 1.29 1.483 2.023 2.138l.243.215c.268.232.559.48.87.736.115.098.485.393.77.62l.305.23-.019.039c-.109.227-.493 1.045-.585 1.242l-.075.161zM30.22 15.544c.648-.118 1.271-.18 1.854-.186.477.002.953.056 1.443.186.732.193 1.33.59 1.825 1.212.59.74.857 1.5.817 2.326-.04.843-.284 1.81-.724 2.875-.098.236-.205.48-.323.74l-.355.749-.009-.008-.006.013c-.26-.208-.568-.454-.674-.543-.3-.25-.58-.485-.835-.708l-.225-.198a15.381 15.381 0 0 1-3.24-4.07l-.104-.195c-.148-.284-.325-.642-.435-.866l-.077-.155-.427-.865 1.495-.307zm-13.377-2.438c.312-.58.652-1.106 1.011-1.565a5.361 5.361 0 0 1 1.045-1.012c.608-.452 1.29-.672 2.086-.672.945 0 1.706.266 2.328.814.633.557 1.237 1.35 1.795 2.36.124.222.248.457.378.712l.364.744-.012.003.005.012a38.553 38.553 0 0 1-1.925.4l-.288.051a15.405 15.405 0 0 1-5.202-.005l-.218-.04c-.321-.062-.72-.15-.963-.202l-.15-.033-.947-.207.693-1.36zM6.64 16.781c.59-.74 1.272-1.169 2.087-1.313a6.7 6.7 0 0 1 1.175-.096c.549 0 1.147.054 1.79.163.251.042.512.092.786.148l.207.044c.153.034.328.072.333.072l.276.065-.005.011.011.003c-.144.3-.316.654-.38.777-.175.349-.344.673-.503.972l-.144.263a15.352 15.352 0 0 1-3.247 4.063l-.167.146c-.264.225-.606.502-.794.655l-.086.07c-.114.094-.473.386-.75.61l-.631-1.389a11.074 11.074 0 0 1-.594-1.767 5.375 5.375 0 0 1-.14-1.448c.026-.757.28-1.427.776-2.049zm1.148 19.003c-.21-.054-.405-.103-.588-.154a11.072 11.072 0 0 1-1.75-.637 5.36 5.36 0 0 1-1.22-.795c-.576-.49-.941-1.106-1.119-1.883-.21-.922-.12-1.723.274-2.45.403-.742 1.042-1.507 1.9-2.276.191-.17.393-.344.609-.524l.647-.523.004.009.01-.009c.145.3.316.657.374.784.163.356.311.689.444.997l.117.279a15.32 15.32 0 0 1 1.153 5.075l.01.22c.01.323.014.727.016.976l.001.163.01.967-.892-.219zm10.408 7.846c-.536.389-1.071.716-1.591.972a5.363 5.363 0 0 1-1.38.459c-.745.141-1.454.044-2.171-.3-.852-.411-1.423-.982-1.745-1.743-.329-.777-.529-1.754-.594-2.904a24.178 24.178 0 0 1-.031-.807l-.007-.546.001-.284.012.003v-.012c.324.074.708.162.844.197.38.094.733.186 1.055.274l.291.083c.842.243 1.662.555 2.437.93.78.374 1.537.822 2.249 1.331l.18.131c.24.18.533.408.731.563l.932.73-1.213.923zm13.109-3.608a11.04 11.04 0 0 1-.232 1.848 5.392 5.392 0 0 1-.502 1.366c-.351.67-.87 1.163-1.589 1.51-.851.41-1.652.5-2.45.277-.81-.226-1.699-.678-2.638-1.343-.21-.15-.425-.309-.648-.478l-.656-.517.01-.006-.01-.008c.26-.208.57-.453.68-.537.31-.238.601-.457.904-.678l.215-.153a15.302 15.302 0 0 1 4.694-2.254l.207-.057c.321-.085.727-.181.968-.238l.14-.034.94-.224.004.225-.037 1.3zm7.597-7.74c-.21.922-.638 1.606-1.31 2.09-.683.492-1.591.904-2.7 1.226-.245.071-.502.14-.774.209l-.81.19v-.013l-.014.002c.001-.332.002-.726.005-.865.007-.39.018-.755.033-1.096l.015-.296a15.326 15.326 0 0 1 1.162-5.07l.087-.205c.127-.287.293-.64.4-.867l.078-.168.411-.875 1.171.977c.498.436.936.884 1.302 1.334.302.37.549.778.754 1.244.306.693.368 1.407.19 2.183z" fill="url(#a)"/></svg>