<svg xmlns="http://www.w3.org/2000/svg" width="36" height="56"><path d="m0 0h36v56h-36z" fill="none"/><path d="m29 10h-22c-3.9 0-7 3.1-7 7v22c0 3.9 3.1 7 7 7h22c3.9 0 7-3.1 7-7v-22c0-3.9-3.1-7-7-7zm-18.8 8.1c.4-.5 1-.8 1.6-.8v.2c0 .6-.2 1.1-.6 1.5s-1 .8-1.5.8-.1 0-.1 0 0-.1 0-.2c0-.6.3-1.1.6-1.5zm1 17.4c0 1.2-.9 2.1-2.3 2.1s-2.3-.8-2.3-2.1v-3.6h1v3.6c0 .8.5 1.3 1.3 1.3s1.3-.5 1.3-1.3v-3.6h1zm-1.3-7.9c-.8 0-1.1.4-1.8.4s-1.1-.6-1.7-1.4c-.6-.9-1.1-2.3-1.1-3.6 0-2.1 1.4-3.2 2.7-3.2s1.3.5 1.8.5 1.1-.5 1.9-.5 1.4 0 2.1 1.1c0 0-1.2.7-1.2 2.1s1.4 2.2 1.4 2.2-.2.8-.7 1.5-.9 1.3-1.7 1.3-.9-.4-1.8-.4zm5.8 9.9h-3.6v-5.6h1v4.8h2.5v.8zm4.1-4.8h-1.7v4.8h-1v-4.8h-1.7v-.8h4.4zm-.5-4.8-2.1-5.5v5.5h-1.3v-7.8h1.6l2.3 6 2.3-6h1.6v7.8h-1.2v-5.5l-2.1 5.5h-.9zm4.3 9.6-1.1-2.1h-1.1v2.1h-1v-5.6h2.2c1.2 0 1.9.7 1.9 1.8 0 .8-.4 1.4-1.1 1.6l1.2 2.3h-1.1zm5.6 0-.5-1.5h-2.1l-.5 1.5h-1l2-5.6h1.1l2 5.6h-1.1zm1.5-9.6h-5.4v-.9l2.5-2.6c1.1-1.1 1.3-1.5 1.3-2.1 0-.7-.5-1.2-1.3-1.2s-1.4.5-1.4 1.3-1.3 0-1.3 0c0-1.5 1.1-2.5 2.7-2.5s2.6.9 2.6 2.2c0 .9-.4 1.6-1.8 3l-1.6 1.5c0 .1 3.5.1 3.5.1v1.1zm-3 4.9.8 2.4h-1.6zm-4.2.8c0-.6-.4-.9-1-.9h-1.1v1.9h1.1c.6 0 1-.4 1-1s0 0 0 0z"/></svg>