<svg xmlns="http://www.w3.org/2000/svg" height="56" viewBox="0 0 78 56" width="78"><path d="m0 0h78v56h-78z" fill="none"/><path d="m65.5394 33.1045c0 .6055-.373.957-1.0078.957h-1.1318v-1.9141h1.1133c.6299 0 1.0264.3594 1.0264.9492v.0078zm4.1338-.7695-.7822 2.3984h1.584l-.7783-2.3984h-.0234zm8.3268-15.335v22c0 3.8594-3.1401 7-7 7h-22c-3.8599 0-7-3.1406-7-7v-22c0-3.8594 3.1401-7 7-7h22c3.8599 0 7 3.1406 7 7zm-20.8579 10.9238h1.251v-5.5107h.0918l2.1484 5.5107h.9453l2.1484-5.5107h.0967v5.5107h1.2461v-7.75h-1.5898l-2.3252 5.9609h-.0918l-2.3311-5.9609h-1.5898zm-6.207-8.3535c0 .082.0137.1641.0205.1914.0342.0068.0889.0137.1436.0137.4854 0 1.0938-.3281 1.4561-.7656.3281-.3965.5674-.9502.5674-1.5039 0-.0752-.0068-.1504-.0205-.2119-.54.0205-1.1895.3623-1.5791.8203-.3076.3486-.5879.8955-.5879 1.4561zm2.2498 11.7608h-1v3.5664c0 .7812-.4707 1.293-1.3027 1.293-.833 0-1.3076-.5117-1.3076-1.293v-3.5664h-1.0039v3.6484c0 1.2461.8867 2.0859 2.3115 2.0859 1.4277 0 2.3027-.8398 2.3027-2.0859zm1.4211-4.6241c.5127-.752.7246-1.4902.7383-1.5244-.0479-.0137-1.4355-.5811-1.4355-2.1738 0-1.3809 1.0938-2.0029 1.1553-2.0508-.7246-1.0391-1.8252-1.0664-2.126-1.0664-.8135 0-1.4766.4922-1.8936.4922-.4512 0-1.0459-.4648-1.75-.4648-1.3398 0-2.7002 1.1074-2.7002 3.1992 0 1.2988.5059 2.6729 1.1279 3.5615.5332.752.998 1.3672 1.668 1.3672.6631 0 .957-.4443 1.7842-.4443.8408 0 1.0254.4307 1.7637.4307.7246 0 1.21-.6699 1.668-1.3262zm3.1434 9.4131h-2.5488v-4.7891h-1.0039v5.6367h3.5527v-.8477zm4.0371-4.789h-4.3584v.8477h1.6807v4.7891h1v-4.7891h1.6777zm4.9482 5.6367-1.2256-2.2617c.6533-.2383 1.0576-.8516 1.0576-1.6094v-.0078c0-1.0898-.7314-1.7578-1.9297-1.7578h-2.2412v5.6367h1.0039v-2.1094h1.0859l1.1045 2.1094h1.1445zm5.5225 0-2.0078-5.6367h-1.1279l-2.0078 5.6367h1.0498l.4746-1.457h2.0898l.4746 1.457zm.0587-11.2139c0-1.0742-.7568-1.751-1.8955-1.8584v-.0264c.9287-.1934 1.6211-.833 1.6211-1.7949v-.0098c0-1.2148-1.0361-2.0469-2.6309-2.0469-1.5635 0-2.6211.8809-2.7402 2.2236l-.0049.0596h1.2891l.0049-.0547c.0703-.6924.6348-1.127 1.4512-1.127.8262 0 1.3047.418 1.3047 1.127v.0117c0 .6758-.5693 1.1602-1.4238 1.1602h-.8857v1.0312h.9131c.9941 0 1.5957.4512 1.5957 1.2676v.0098c0 .7207-.5967 1.2197-1.4941 1.2197-.9072 0-1.5137-.4678-1.5898-1.1221l-.0049-.0596h-1.3213l.0059.0645c.1016 1.3271 1.2129 2.251 2.9102 2.251 1.7188 0 2.8955-.9512 2.8955-2.3154v-.0107zm-43.7523-4.4746h.0811v4.0449h-2.5254v-.0801c.752-1.3164 1.6494-2.75 2.4443-3.9648zm-9.7018 11.5557-.7822 2.3984h1.584l-.7783-2.3984zm17.1382-15.835v22c0 3.8594-3.1401 7-7 7h-22c-3.8599 0-7-3.1406-7-7v-22c0-3.8594 3.1401-7 7-7h22c3.8599 0 7 3.1406 7 7zm-20.4296 10.9238h1.252v-5.5107h.0908l2.1484 5.5107h.9453l2.1484-5.5107h.0967v5.5107h1.2461v-7.75h-1.5898l-2.3262 5.9609h-.0908l-2.3311-5.9609h-1.5898zm-6.207-8.3535c0 .082.0137.1641.0205.1914.0342.0068.0889.0137.1436.0137.4854 0 1.0938-.3281 1.4561-.7656.3281-.3965.5674-.9502.5674-1.5039 0-.0752-.0068-.1504-.0205-.2119-.54.0205-1.1895.3623-1.5791.8203-.3076.3486-.5879.8955-.5879 1.4561h-.0001zm.2393 8.0322c.8408 0 1.0254.4307 1.7637.4307.7246 0 1.21-.6699 1.668-1.3262.5127-.752.7246-1.4902.7383-1.5244-.0479-.0137-1.4355-.5811-1.4355-2.1738 0-1.3809 1.0938-2.0029 1.1553-2.0508-.7246-1.0391-1.8252-1.0664-2.126-1.0664-.8135 0-1.4766.4922-1.8936.4922-.4512 0-1.0459-.4648-1.75-.4648-1.3398 0-2.7002 1.1074-2.7002 3.1992 0 1.2988.5059 2.6729 1.1279 3.5615.5332.752.998 1.3672 1.668 1.3672.6631 0 .957-.4443 1.7842-.4443h-.0001zm6.1332 4.2285h-1.1602l-1.7197 4.3047h-.0273l-1.7197-4.3047h-1.1592v5.6367h.9062v-4.0078h.0273l1.6191 4.0078h.6807l1.6191-4.0078h.0303v4.0078h.9033v-5.6367zm5.71 5.6367-2.0078-5.6367h-1.1279l-2.0078 5.6367h1.0498l.4746-1.457h2.0898l.4746 1.457zm3.4863-2.8125v-.0117l1.875-2.8125h-1.124l-1.2998 2.1211h-.043l-1.3037-2.1211h-1.1865l1.8135 2.7852v.0117l-1.8291 2.8398h1.0938l1.3311-2.0742h.0342l1.3271 2.0742h1.1553l-1.8438-2.8125zm6.0592-9.3633h-1.042v-5.1182h-1.9609c-1.0527 1.5996-2.1533 3.3828-3.1582 5.1289v1.1328h3.793v1.4883h1.3262v-1.4883h1.042v-1.1436z"/></svg>