<svg xmlns="http://www.w3.org/2000/svg" height="56" width="120"><path d="m0 0h120v56h-120z" fill="none"/><path d="m28.5566 25.7178h.0801v4.0439h-2.5234v-.0801c.752-1.3164 1.6484-2.75 2.4434-3.9639zm7.4434-8.7178v22c0 3.8594-3.1401 7-7 7h-22c-3.8599 0-7-3.1406-7-7v-22c0-3.8594 3.1401-7 7-7h22c3.8599 0 7 3.1406 7 7zm-26.6436 7.0078c0 .082.0137.1641.0205.1914.0342.0078.0889.0137.1436.0137.4854 0 1.0938-.3281 1.4561-.7656.3281-.3965.5674-.9492.5674-1.5039 0-.0742-.0068-.1504-.0205-.2109-.54.0195-1.1895.3613-1.5791.8203-.3076.3477-.5879.8945-.5879 1.4551zm4.4092 5.6133c-.0479-.0137-1.4355-.582-1.4355-2.1738 0-1.3809 1.0938-2.0039 1.1553-2.0508-.7246-1.0391-1.8252-1.0664-2.126-1.0664-.8135 0-1.4766.4922-1.8936.4922-.4512 0-1.0459-.4648-1.75-.4648-1.3398 0-2.7002 1.1074-2.7002 3.1992 0 1.2988.5059 2.6719 1.1279 3.5605.5332.752.998 1.3672 1.668 1.3672.6631 0 .957-.4434 1.7842-.4434.8408 0 1.0254.4297 1.7637.4297.7246 0 1.21-.6699 1.668-1.3262.5127-.752.7246-1.4902.7383-1.5234zm9.7256-5.0098h-1.5898l-2.3252 5.9619h-.0918l-2.3311-5.9619h-1.5898v7.75h1.251v-5.5098h.0918l2.1484 5.5098h.9453l2.1484-5.5098h.0967v5.5098h1.2461zm7.4932 5.1191h-1.042v-5.1191h-1.96c-1.0527 1.6006-2.1543 3.3838-3.1582 5.1289v1.1338h3.791v1.4873h1.3271v-1.4873h1.042v-1.1436zm37.1436-4.4863v.0801h2.5254v-4.0449h-.0811c-.7949 1.2148-1.6924 2.6484-2.4443 3.9648zm-3.1001 7.3652c-1 0-1.6416.7812-1.6416 2.0352v.0078c0 1.2539.6377 2.0391 1.6416 2.0391 1.0156 0 1.6416-.7969 1.6416-2.0391v-.0078c0-1.25-.6377-2.0352-1.6416-2.0352zm12.9722-15.6094v22c0 3.8594-3.1401 7-7 7h-22c-3.8599 0-7-3.1406-7-7v-22c0-3.8594 3.1401-7 7-7h22c3.8599 0 7 3.1406 7 7zm-26.6279 2.5703c0 .082.0137.1641.0205.1914.0342.0068.0889.0137.1436.0137.4854 0 1.0938-.3281 1.4561-.7656.3281-.3965.5674-.9502.5674-1.5039 0-.0752-.0068-.1504-.0205-.2119-.54.0205-1.1895.3623-1.5791.8203-.3076.3486-.5879.8955-.5879 1.4561zm.2393 8.0322c.8408 0 1.0254.4307 1.7637.4307.7246 0 1.21-.6699 1.668-1.3262.5127-.752.7246-1.4902.7383-1.5244-.0479-.0137-1.4355-.5811-1.4355-2.1738 0-1.3809 1.0938-2.0029 1.1553-2.0508-.7246-1.0391-1.8252-1.0664-2.126-1.0664-.8135 0-1.4766.4922-1.8936.4922-.4512 0-1.0459-.4648-1.75-.4648-1.3398 0-2.7002 1.1074-2.7002 3.1992 0 1.2988.5059 2.6729 1.1279 3.5615.5332.752.998 1.3672 1.668 1.3672.6631 0 .957-.4443 1.7842-.4443zm5.3989 6.1123c0-1.1289-.7744-1.8828-1.9111-1.8828h-2.1631v5.6367h1.0039v-1.8633h1.1592c1.1367 0 1.9111-.7578 1.9111-1.8828zm4.9727 3.7539-1.2256-2.2617c.6533-.2383 1.0576-.8516 1.0576-1.6094v-.0078c0-1.0898-.7314-1.7578-1.9297-1.7578h-2.2412v5.6367h1.0039v-2.1094h1.0859l1.1045 2.1094h1.1445zm.0327-9.5449 2.1484-5.5107h.0967v5.5107h1.2461v-7.75h-1.5898l-2.3262 5.9609h-.0908l-2.3311-5.9609h-1.5898v7.75h1.252v-5.5107h.0908l2.1484 5.5107zm5.6733 6.7207c0-1.7891-1.0234-2.9102-2.6611-2.9102-1.6338 0-2.665 1.1211-2.665 2.9102v.0078c0 1.793 1.0234 2.9141 2.665 2.9141s2.6611-1.1211 2.6611-2.9141zm5.311-9.3525h-1.042v-5.1182h-1.9609c-1.0527 1.5996-2.1533 3.3828-3.1582 5.1289v1.1328h3.793v1.4883h1.3262v-1.4883h1.042v-1.1436zm-12.2124 8.3057c0-.5898-.3965-.9492-1.0264-.9492h-1.1133v1.9141h1.1318c.6348 0 1.0078-.3516 1.0078-.957v-.0078zm-5.9375-.9414h-.9102v2.1367h.9102c.7197 0 1.1406-.3906 1.1406-1.0664v-.0078c0-.6758-.4209-1.0625-1.1406-1.0625zm48.0117.1787-.7822 2.3984h1.584l-.7783-2.3984h-.0234zm7.2661-7.5908v.0801h2.5254v-4.0449h-.0811c-.7949 1.2148-1.6924 2.6484-2.4443 3.9648zm9.8721-8.2441v22c0 3.8594-3.1401 7-7 7h-22c-3.8599 0-7-3.1406-7-7v-22c0-3.8594 3.1401-7 7-7h22c3.8599 0 7 3.1406 7 7zm-20.4209 10.9238h1.252v-5.5107h.0908l2.1484 5.5107h.9453l2.1484-5.5107h.0967v5.5107h1.2461v-7.75h-1.5898l-2.3262 5.9609h-.0908l-2.3311-5.9609h-1.5898zm-6.207-8.3535c0 .082.0137.1641.0205.1914.0342.0068.0889.0137.1436.0137.4854 0 1.0938-.3281 1.4561-.7656.3281-.3965.5674-.9502.5674-1.5039 0-.0752-.0068-.1504-.0205-.2119-.54.0205-1.1895.3623-1.5791.8203-.3076.3486-.5879.8955-.5879 1.4561zm.2393 8.0322c.8408 0 1.0254.4307 1.7637.4307.7246 0 1.21-.6699 1.668-1.3262.5127-.752.7246-1.4902.7383-1.5244-.0479-.0137-1.4355-.5811-1.4355-2.1738 0-1.3809 1.0938-2.0029 1.1553-2.0508-.7246-1.0391-1.8252-1.0664-2.126-1.0664-.8135 0-1.4766.4922-1.8936.4922-.4512 0-1.0459-.4648-1.75-.4648-1.3398 0-2.7002 1.1074-2.7002 3.1992 0 1.2988.5059 2.6729 1.1279 3.5615.5332.752.998 1.3672 1.668 1.3672.6631 0 .957-.4443 1.7842-.4443zm6.1245 4.2285h-1.1602l-1.7197 4.3047h-.0273l-1.7197-4.3047h-1.1592v5.6367h.9062v-4.0078h.0273l1.6191 4.0078h.6807l1.6191-4.0078h.0303v4.0078h.9033v-5.6367zm5.71 5.6367-2.0078-5.6367h-1.1279l-2.0078 5.6367h1.0498l.4746-1.457h2.0898l.4746 1.457zm3.4863-2.8125v-.0117l1.875-2.8125h-1.124l-1.2998 2.1211h-.043l-1.3037-2.1211h-1.1865l1.8135 2.7852v.0117l-1.8291 2.8398h1.0938l1.3311-2.0742h.0342l1.3271 2.0742h1.1553l-1.8438-2.8125zm6.0679-9.3633h-1.042v-5.1182h-1.9609c-1.0527 1.5996-2.1533 3.3828-3.1582 5.1289v1.1328h3.793v1.4883h1.3262v-1.4883h1.042v-1.1436z"/></svg>