<svg xmlns="http://www.w3.org/2000/svg" width="78" height="56"><path fill="none" d="M0 0H78V56H0z"/><path d="M29 10H7c-3.86 0-7 3.14-7 7v22c0 3.86 3.14 7 7 7h22c3.86 0 7-3.14 7-7V17c0-3.86-3.14-7-7-7zM9.951 22.564c.39-.458 1.04-.8 1.58-.82.013.061.02.137.02.212 0 .554-.24 1.107-.567 1.504-.363.437-.971.765-1.457.765a.78.78 0 0 1-.143-.013.941.941 0 0 1-.02-.192c0-.56.28-1.107.587-1.456zm3.083 8.593c-.458.656-.943 1.326-1.668 1.326-.738 0-.923-.43-1.763-.43-.827 0-1.121.444-1.785.444-.67 0-1.134-.615-1.668-1.367-.622-.889-1.127-2.263-1.127-3.562 0-2.092 1.36-3.199 2.7-3.199.704 0 1.299.465 1.75.465.417 0 1.08-.492 1.893-.492.301 0 1.402.027 2.126 1.066-.061.048-1.155.67-1.155 2.05 0 1.594 1.388 2.161 1.435 2.175-.013.034-.225.772-.738 1.524zm10.464 1.217h-1.246v-5.51h-.097l-2.148 5.51h-.945l-2.149-5.51h-.09v5.51H15.57v-7.75h1.59l2.33 5.96h.091l2.326-5.96h1.59v7.75zm7.493-1.488H29.95v1.488h-1.326v-1.488H24.83v-1.133a102.913 102.913 0 0 1 3.158-5.13h1.961v5.12h1.042v1.143zm-2.427-5.157h.08v4.045H26.12v-.08a80.504 80.504 0 0 1 2.445-3.965zm38.105 8.916v.007c0 1.243-.625 2.04-1.641 2.04-1.004 0-1.642-.786-1.642-2.04v-.007c0-1.254.642-2.036 1.642-2.036 1.004 0 1.641.786 1.641 2.036zM54.85 32.656h-.91v2.137h.91c.72 0 1.14-.39 1.14-1.066v-.008c0-.676-.42-1.063-1.14-1.063zm5.938.942c0-.59-.397-.95-1.027-.95h-1.113v1.915h1.132c.635 0 1.008-.352 1.008-.957v-.008zm7.331-8.354v.08h2.526V21.28h-.081a80.428 80.428 0 0 0-2.445 3.965zM78 17v22c0 3.86-3.14 7-7 7H49c-3.86 0-7-3.14-7-7V17c0-3.86 3.14-7 7-7h22c3.86 0 7 3.14 7 7zm-26.636 2.57c0 .082.013.164.02.192a.79.79 0 0 0 .144.013c.485 0 1.093-.328 1.456-.765.328-.397.567-.95.567-1.504 0-.075-.007-.15-.02-.212-.54.02-1.19.362-1.58.82-.307.349-.587.896-.587 1.456zm.239 8.033c.84 0 1.025.43 1.764.43.724 0 1.21-.67 1.668-1.326.512-.752.724-1.49.738-1.524-.048-.014-1.436-.581-1.436-2.174 0-1.381 1.094-2.003 1.156-2.05-.725-1.04-1.826-1.067-2.126-1.067-.814 0-1.477.492-1.894.492-.451 0-1.046-.465-1.75-.465-1.34 0-2.7 1.107-2.7 3.2 0 1.298.506 2.672 1.128 3.56.533.753.998 1.368 1.668 1.368.663 0 .957-.444 1.784-.444zm5.407 6.112c0-1.129-.774-1.883-1.91-1.883h-2.164v5.637h1.004v-1.864h1.16c1.136 0 1.91-.757 1.91-1.882v-.008zm4.973 3.754l-1.225-2.262c.653-.238 1.057-.852 1.057-1.61v-.007c0-1.09-.731-1.758-1.93-1.758h-2.24v5.637h1.003v-2.11h1.086l1.105 2.11h1.144zm.024-9.545l2.149-5.51h.096v5.51h1.246v-7.75h-1.59l-2.326 5.96h-.09l-2.332-5.96h-1.59v7.75h1.253v-5.51h.09l2.149 5.51h.945zm5.682 6.72c0-1.789-1.023-2.91-2.661-2.91-1.634 0-2.665 1.121-2.665 2.91v.008c0 1.793 1.023 2.914 2.665 2.914s2.661-1.12 2.661-2.914v-.007zm5.303-9.352H71.95v-5.118h-1.961a102.913 102.913 0 0 0-3.159 5.129v1.133h3.793v1.488h1.327v-1.488h1.042v-1.144z"/></svg>